<svg width="77" height="77" viewBox="0 0 77 77" fill="none" xmlns="http://www.w3.org/2000/svg">
<path d="M72.3814 34.5102L43.9771 17.516C43.2745 17.0885 42.4698 16.8575 41.6473 16.8472C40.8249 16.8368 40.0147 17.0476 39.3015 17.4574C38.5277 17.908 37.8868 18.5554 37.4441 19.3338C37.0015 20.1122 36.7726 20.9939 36.781 21.8894V33.7778L9.60236 17.5115C8.89967 17.084 8.09505 16.853 7.27256 16.8426C6.45008 16.8323 5.63992 17.0431 4.92672 17.4529C4.15287 17.9035 3.51206 18.5509 3.06936 19.3293C2.62667 20.1077 2.39786 20.9894 2.40617 21.8849V55.1212C2.39744 56.017 2.62605 56.899 3.06878 57.6778C3.5115 58.4565 4.15254 59.1041 4.92672 59.5547C5.63992 59.9645 6.45008 60.1753 7.27256 60.165C8.09505 60.1546 8.89967 59.9236 9.60236 59.4961L36.781 43.2223V55.1152C36.7712 56.012 36.9993 56.8953 37.442 57.6752C37.8848 58.455 38.5264 59.1036 39.3015 59.5547C40.0147 59.9645 40.8249 60.1753 41.6473 60.165C42.4698 60.1546 43.2745 59.9236 43.9771 59.4961L72.3814 42.5019C73.0567 42.0789 73.6134 41.4913 73.9993 40.7942C74.3852 40.0971 74.5876 39.3134 74.5876 38.5166C74.5876 37.7198 74.3852 36.9361 73.9993 36.239C73.6134 35.5418 73.0567 34.9542 72.3814 34.5312V34.5102Z" fill="black"/>
</svg>
