<svg width="77" height="77" viewBox="0 0 77 77" fill="none" xmlns="http://www.w3.org/2000/svg">
<path d="M4.61857 34.5102L33.0229 17.516C33.7255 17.0885 34.5302 16.8575 35.3527 16.8472C36.1751 16.8368 36.9853 17.0476 37.6985 17.4574C38.4723 17.908 39.1132 18.5554 39.5559 19.3338C39.9985 20.1122 40.2274 20.9939 40.219 21.8894V33.7778L67.3976 17.5115C68.1003 17.084 68.905 16.853 69.7274 16.8426C70.5499 16.8323 71.3601 17.0431 72.0733 17.4529C72.8471 17.9035 73.4879 18.5509 73.9306 19.3293C74.3733 20.1077 74.6021 20.9894 74.5938 21.8849V55.1212C74.6026 56.017 74.3739 56.899 73.9312 57.6778C73.4885 58.4565 72.8475 59.1041 72.0733 59.5547C71.3601 59.9645 70.5499 60.1753 69.7274 60.165C68.905 60.1546 68.1003 59.9236 67.3976 59.4961L40.219 43.2223V55.1152C40.2288 56.012 40.0007 56.8953 39.558 57.6752C39.1152 58.455 38.4736 59.1036 37.6985 59.5547C36.9853 59.9645 36.1751 60.1753 35.3527 60.165C34.5302 60.1546 33.7255 59.9236 33.0229 59.4961L4.61857 42.5019C3.94332 42.0789 3.38662 41.4913 3.00071 40.7942C2.61481 40.0971 2.41235 39.3134 2.41235 38.5166C2.41235 37.7198 2.61481 36.9361 3.00071 36.239C3.38662 35.5418 3.94332 34.9542 4.61857 34.5312V34.5102Z" fill="black"/>
</svg>
